# xmcd
# Track frame offsets:
# 150
# 17275
# 39067
# 52201
# 67374
# 81962
# 99397
# 122594
# 140170
# 157931
# 177917
# 194127
# 211196
#
# Disc length: 2996 seconds
# Revision: 0
# Processed by: cddbd v1.5.2PL0 Copyright (c) Steve Scherf et al.
# Submitted via: VisiTrax 2.11.2.271 - For more info visit www.synapsa.com
#
DISCID=b50bb20d
DTITLE=Phillip Berrigan - A Cowboy's Dream
DYEAR=2011
DGENRE=Country
TTITLE0=Amber
TTITLE1=Baby I Will Always Love You
TTITLE2=I Was Only Dreaming
TTITLE3=Once Upon A Memory
TTITLE4=Like I Will
TTITLE5=A Dagger Through My Heart
TTITLE6=An Angel Without Wings
TTITLE7=Sara
TTITLE8=Those Doors Swing Both Ways
TTITLE9=Your Memories Are Locked In My Heart
TTITLE10=Before You Go
TTITLE11=Take My Heart
TTITLE12=Today's Another Day
EXTD=
EXTT0=
EXTT1=
EXTT2=
EXTT3=
EXTT4=
EXTT5=
EXTT6=
EXTT7=
EXTT8=
EXTT9=
EXTT10=
EXTT11=
EXTT12=
PLAYORDER=
